<?xml version="1.0" standalone="no"?>
<!DOCTYPE svg PUBLIC "-//W3C//DTD SVG 20010904//EN"
 "http://www.w3.org/TR/2001/REC-SVG-20010904/DTD/svg10.dtd">
<svg version="1.0" xmlns="http://www.w3.org/2000/svg"
 width="16.000000pt" height="16.000000pt" viewBox="0 0 16.000000 16.000000"
 preserveAspectRatio="xMidYMid meet">

<g transform="translate(0.000000,16.000000) scale(0.100000,-0.100000)"
fill="#000000" stroke="none">
<path d="M43 148 c-55 -27 -50 -114 8 -138 89 -37 151 99 63 139 -30 13 -42
13 -71 -1z m77 -69 l0 -50 -37 3 c-35 3 -38 6 -41 36 -5 50 3 62 43 62 l35 0
0 -51z"/>
<path d="M55 80 c0 -37 2 -40 27 -40 26 0 28 3 28 40 0 37 -2 40 -28 40 -25 0
-27 -3 -27 -40z m35 11 c0 -5 3 -18 6 -28 5 -16 4 -16 -10 1 -18 23 -20 36 -6
36 6 0 10 -4 10 -9z"/>
</g>
</svg>
