<svg width="18" height="19" fill="none" xmlns="http://www.w3.org/2000/svg"><path d="M17.659 8.23c.078 0 .141.065.141.145v1.521a9.23 9.23 0 0 1-.15 1.666c-.766 4.195-4.375 7.365-8.7 7.334-4.853-.034-8.737-4.05-8.726-9.02.01-4.961 3.941-8.98 8.788-8.98 2.375 0 4.53.965 6.111 2.532.057.057.059.15.003.208l-2.102 2.152a.139.139 0 0 1-.197.002 5.447 5.447 0 0 0-3.815-1.562c-3.054 0-5.514 2.501-5.534 5.629-.021 3.148 2.465 5.707 5.534 5.707 2.49 0 4.597-1.684 5.291-4.002h-5.15a.143.143 0 0 1-.14-.144V8.375c0-.08.062-.145.14-.145h8.506Z" fill="#2196F3"/><path d="M17.659 8.23h-1.061c.078 0 .141.065.141.145v1.521c0 .57-.052 1.126-.15 1.666-.731 4.002-4.05 7.07-8.108 7.318.155.01.311.015.469.016 4.325.03 7.933-3.14 8.7-7.334.098-.54.15-1.096.15-1.666v-1.52a.143.143 0 0 0-.142-.146Z" fill="#1E88E5"/><path d="m3.985 7.523-2.67-1.975C2.814 2.774 5.699.896 9.013.896c2.374 0 4.529.965 6.11 2.532.058.057.06.15.003.208l-2.101 2.152a.139.139 0 0 1-.197.003 5.447 5.447 0 0 0-3.815-1.563c-2.23 0-4.15 1.35-5.027 3.295Z" fill="#F44336"/><path d="m3.214 6.953.77.57c.8-1.776 2.472-3.054 4.452-3.264l.044-.005a5.469 5.469 0 0 0-.53-.026c-2.013 0-3.768 1.087-4.736 2.725ZM14.062 3.428c.057.057.058.15.002.208L12.36 5.382c.163.128.32.264.468.408a.139.139 0 0 0 .197-.002l2.101-2.152a.148.148 0 0 0-.002-.208A8.655 8.655 0 0 0 8.48.913a8.665 8.665 0 0 1 5.58 2.515Z" fill="#E53935"/><path d="M15.459 16.013c-1.605 1.773-3.9 2.883-6.447 2.883-3.44 0-6.42-2.024-7.862-4.974l2.725-1.913c.817 2.084 2.81 3.555 5.137 3.555 1.46 0 2.789-.58 3.777-1.526l2.67 1.975Z" fill="#4CAF50"/><path d="m3.875 12.01-.804.563c.933 1.78 2.769 2.991 4.88 2.991.178 0 .355-.009.53-.025-2.097-.205-3.852-1.607-4.606-3.53ZM9.012 18.896c2.547 0 4.842-1.11 6.447-2.883l-.654-.484c-1.507 1.92-3.768 3.195-6.322 3.351.175.01.351.016.529.016Z" fill="#43A047"/><path d="M3.477 9.896c0 .747.141 1.46.398 2.113L1.15 13.921a9.135 9.135 0 0 1-.926-4.025c0-1.577.396-3.06 1.092-4.348l2.669 1.975a5.76 5.76 0 0 0-.508 2.373Z" fill="#FFC107"/><path d="m3.071 12.573.804-.564a5.77 5.77 0 0 1-.398-2.113c0-.847.182-1.652.508-2.373l-.77-.57c-.501.846-.792 1.838-.799 2.904a5.752 5.752 0 0 0 .655 2.716Z" fill="#FFB300"/></svg>